ffmpeg version 5.1.8-0+deb12u1 Copyright (c) 2000-2025 the FFmpeg developers
  built with gcc 12 (Debian 12.2.0-14+deb12u1)
  configuration: --prefix=/usr --extra-version=0+deb12u1 --toolchain=hardened --libdir=/usr/lib/x86_64-linux-gnu --incdir=/usr/include/x86_64-linux-gnu --arch=amd64 --enable-gpl --disable-stripping --enable-gnutls --enable-ladspa --enable-libaom --enable-libass --enable-libbluray --enable-libbs2b --enable-libcaca --enable-libcdio --enable-libcodec2 --enable-libdav1d --enable-libflite --enable-libfontconfig --enable-libfreetype --enable-libfribidi --enable-libglslang --enable-libgme --enable-libgsm --enable-libjack --enable-libmp3lame --enable-libmysofa --enable-libopenjpeg --enable-libopenmpt --enable-libopus --enable-libpulse --enable-librabbitmq --enable-librist --enable-librubberband --enable-libshine --enable-libsnappy --enable-libsoxr --enable-libspeex --enable-libsrt --enable-libssh --enable-libsvtav1 --enable-libtheora --enable-libtwolame --enable-libvidstab --enable-libvorbis --enable-libvpx --enable-libwebp --enable-libx265 --enable-libxml2 --enable-libxvid --enable-libzimg --enable-libzmq --enable-libzvbi --enable-lv2 --enable-omx --enable-openal --enable-opencl --enable-opengl --enable-sdl2 --disable-sndio --enable-libjxl --enable-pocketsphinx --enable-librsvg --enable-libmfx --enable-libdc1394 --enable-libdrm --enable-libiec61883 --enable-chromaprint --enable-frei0r --enable-libx264 --enable-libplacebo --enable-librav1e --enable-shared
  libavutil      57. 28.100 / 57. 28.100
  libavcodec     59. 37.100 / 59. 37.100
  libavformat    59. 27.100 / 59. 27.100
  libavdevice    59.  7.100 / 59.  7.100
  libavfilter     8. 44.100 /  8. 44.100
  libswscale      6.  7.100 /  6.  7.100
  libswresample   4.  7.100 /  4.  7.100
  libpostproc    56.  6.100 / 56.  6.100
Input #0, mjpeg, from 'udp://127.0.0.1:5000':
  Duration: N/A, bitrate: N/A
  Stream #0:0: Video: mjpeg (Baseline), yuvj444p(pc, bt470bg/unknown/unknown), 640x480, 25 tbr, 1200k tbn
Output #0, matroska, to 'ground_archive/ground_1777543336.mkv':
  Metadata:
    encoder         : Lavf59.27.100
  Stream #0:0: Video: mjpeg (Baseline) (MJPG / 0x47504A4D), yuvj444p(pc, bt470bg/unknown/unknown), 640x480, q=2-31, 25 tbr, 1k tbn
Stream mapping:
  Stream #0:0 -> #0:0 (copy)
Press [q] to stop, [?] for help
frame=    1 fps=0.0 q=-1.0 size=       0kB time=00:00:00.04 bitrate=  96.2kbits/s speed=N/A    frame=   15 fps=0.0 q=-1.0 size=     256kB time=00:00:00.60 bitrate=3489.4kbits/s speed=1.16x    frame=   29 fps= 28 q=-1.0 size=     768kB time=00:00:01.16 bitrate=5419.0kbits/s speed=1.12x    frame=   43 fps= 28 q=-1.0 size=    1280kB time=00:00:01.72 bitrate=6092.8kbits/s speed=1.11x    frame=   57 fps= 27 q=-1.0 size=    1792kB time=00:00:02.28 bitrate=6435.8kbits/s speed= 1.1x    frame=   71 fps= 27 q=-1.0 size=    2304kB time=00:00:02.84 bitrate=6643.6kbits/s speed=1.09x    frame=   85 fps= 27 q=-1.0 size=    2816kB time=00:00:03.40 bitrate=6782.9kbits/s speed=1.09x    frame=   99 fps= 27 q=-1.0 size=    3072kB time=00:00:03.96 bitrate=6353.4kbits/s speed=1.09x    frame=  113 fps= 27 q=-1.0 size=    3584kB time=00:00:04.52 bitrate=6494.2kbits/s speed=1.09x    frame=  127 fps= 27 q=-1.0 size=    4096kB time=00:00:05.08 bitrate=6603.9kbits/s speed=1.09x    frame=  141 fps= 27 q=-1.0 size=    4608kB time=00:00:05.64 bitrate=6691.9kbits/s speed=1.09x    frame=  155 fps= 27 q=-1.0 size=    5120kB time=00:00:06.20 bitrate=6763.9kbits/s speed=1.09x    frame=  169 fps= 27 q=-1.0 size=    5632kB time=00:00:06.76 bitrate=6824.0kbits/s speed=1.08x    frame=  183 fps= 27 q=-1.0 size=    6144kB time=00:00:07.32 bitrate=6875.0kbits/s speed=1.08x    frame=  197 fps= 27 q=-1.0 size=    6656kB time=00:00:07.88 bitrate=6918.7kbits/s speed=1.08x    frame=  210 fps= 27 q=-1.0 size=    6912kB time=00:00:08.40 bitrate=6740.0kbits/s speed=1.08x    frame=  224 fps= 27 q=-1.0 size=    7424kB time=00:00:08.96 bitrate=6786.9kbits/s speed=1.08x    frame=  238 fps= 27 q=-1.0 size=    7936kB time=00:00:09.52 bitrate=6828.2kbits/s speed=1.08x    frame=  252 fps= 27 q=-1.0 size=    8448kB time=00:00:10.08 bitrate=6865.0kbits/s speed=1.08x    frame=  266 fps= 27 q=-1.0 size=    8960kB time=00:00:10.64 bitrate=6897.9kbits/s speed=1.08x    frame=  280 fps= 27 q=-1.0 size=    9472kB time=00:00:11.20 bitrate=6927.5kbits/s speed=1.08x    frame=  294 fps= 27 q=-1.0 size=    9728kB time=00:00:11.76 bitrate=6775.9kbits/s speed=1.08x    frame=  308 fps= 27 q=-1.0 size=   10240kB time=00:00:12.32 bitrate=6808.4kbits/s speed=1.08x    frame=  322 fps= 27 q=-1.0 size=   10752kB time=00:00:12.88 bitrate=6838.0kbits/s speed=1.08x    frame=  336 fps= 27 q=-1.0 size=   11264kB time=00:00:13.44 bitrate=6865.2kbits/s speed=1.08x    frame=  350 fps= 27 q=-1.0 size=   11776kB time=00:00:14.00 bitrate=6890.2kbits/s speed=1.08x    frame=  364 fps= 27 q=-1.0 size=   12288kB time=00:00:14.56 bitrate=6913.2kbits/s speed=1.08x    frame=  378 fps= 27 q=-1.0 size=   12800kB time=00:00:15.12 bitrate=6934.6kbits/s speed=1.08x    frame=  392 fps= 27 q=-1.0 size=   13056kB time=00:00:15.68 bitrate=6820.7kbits/s speed=1.08x    frame=  406 fps= 27 q=-1.0 size=   13568kB time=00:00:16.24 bitrate=6843.7kbits/s speed=1.08x    frame=  420 fps= 27 q=-1.0 size=   14080kB time=00:00:16.80 bitrate=6865.3kbits/s speed=1.08x    frame=  433 fps= 27 q=-1.0 size=   14592kB time=00:00:17.32 bitrate=6901.3kbits/s speed=1.08x    frame=  447 fps= 27 q=-1.0 size=   15104kB time=00:00:17.88 bitrate=6919.7kbits/s speed=1.08x    frame=  461 fps= 27 q=-1.0 size=   15616kB time=00:00:18.44 bitrate=6937.1kbits/s speed=1.08x    frame=  474 fps= 27 q=-1.0 size=   15872kB time=00:00:18.96 bitrate=6857.4kbits/s speed=1.07x    frame=  488 fps= 27 q=-1.0 size=   16384kB time=00:00:19.52 bitrate=6875.6kbits/s speed=1.07x    frame=  502 fps= 27 q=-1.0 size=   16896kB time=00:00:20.08 bitrate=6892.7kbits/s speed=1.07x    frame=  516 fps= 27 q=-1.0 size=   17408kB time=00:00:20.64 bitrate=6908.9kbits/s speed=1.07x    frame=  530 fps= 27 q=-1.0 size=   17920kB time=00:00:21.20 bitrate=6924.2kbits/s speed=1.07x    frame=  544 fps= 27 q=-1.0 size=   18432kB time=00:00:21.76 bitrate=6938.8kbits/s speed=1.07x    frame=  558 fps= 27 q=-1.0 size=   18688kB time=00:00:22.32 bitrate=6858.7kbits/s speed=1.07x    frame=  572 fps= 27 q=-1.0 size=   19200kB time=00:00:22.88 bitrate=6874.1kbits/s speed=1.07x    frame=  586 fps= 27 q=-1.0 size=   19712kB time=00:00:23.44 bitrate=6888.8kbits/s speed=1.07x    frame=  600 fps= 27 q=-1.0 size=   20224kB time=00:00:24.00 bitrate=6902.8kbits/s speed=1.07x    frame=  614 fps= 27 q=-1.0 size=   20736kB time=00:00:24.56 bitrate=6916.2kbits/s speed=1.08x    frame=  628 fps= 27 q=-1.0 size=   21248kB time=00:00:25.12 bitrate=6929.0kbits/s speed=1.08x    frame=  642 fps= 27 q=-1.0 size=   21760kB time=00:00:25.68 bitrate=6941.2kbits/s speed=1.08x    frame=  656 fps= 27 q=-1.0 size=   22272kB time=00:00:26.24 bitrate=6952.9kbits/s speed=1.08x    frame=  670 fps= 27 q=-1.0 size=   22528kB time=00:00:26.80 bitrate=6885.9kbits/s speed=1.08x    frame=  684 fps= 27 q=-1.0 size=   23040kB time=00:00:27.36 bitrate=6898.3kbits/s speed=1.08x    frame=  698 fps= 27 q=-1.0 size=   23552kB time=00:00:27.92 bitrate=6910.1kbits/s speed=1.08x    frame=  712 fps= 27 q=-1.0 size=   24064kB time=00:00:28.48 bitrate=6921.5kbits/s speed=1.08x    frame=  726 fps= 27 q=-1.0 size=   24576kB time=00:00:29.04 bitrate=6932.5kbits/s speed=1.08x    frame=  740 fps= 27 q=-1.0 size=   25088kB time=00:00:29.60 bitrate=6943.0kbits/s speed=1.08x    frame=  753 fps= 27 q=-1.0 size=   25344kB time=00:00:30.12 bitrate=6892.8kbits/s speed=1.07x    frame=  767 fps= 27 q=-1.0 size=   25856kB time=00:00:30.68 bitrate=6903.7kbits/s speed=1.07x    frame=  781 fps= 27 q=-1.0 size=   26368kB time=00:00:31.24 bitrate=6914.2kbits/s speed=1.07x    frame=  795 fps= 27 q=-1.0 size=   26880kB time=00:00:31.80 bitrate=6924.3kbits/s speed=1.07x    frame=  809 fps= 27 q=-1.0 size=   27392kB time=00:00:32.36 bitrate=6934.1kbits/s speed=1.07x    frame=  823 fps= 27 q=-1.0 size=   27904kB time=00:00:32.92 bitrate=6943.6kbits/s speed=1.07x    frame=  837 fps= 27 q=-1.0 size=   28160kB time=00:00:33.48 bitrate=6890.1kbits/s speed=1.07x    frame=  851 fps= 27 q=-1.0 size=   28672kB time=00:00:34.04 bitrate=6899.9kbits/s speed=1.08x    frame=  865 fps= 27 q=-1.0 size=   29184kB time=00:00:34.60 bitrate=6909.5kbits/s speed=1.08x    frame=  879 fps= 27 q=-1.0 size=   29696kB time=00:00:35.16 bitrate=6918.7kbits/s speed=1.08x    frame=  893 fps= 27 q=-1.0 size=   30208kB time=00:00:35.72 bitrate=6927.7kbits/s speed=1.08x    frame=  907 fps= 27 q=-1.0 size=   30720kB time=00:00:36.28 bitrate=6936.4kbits/s speed=1.08x    frame=  921 fps= 27 q=-1.0 size=   31232kB time=00:00:36.84 bitrate=6944.8kbits/s speed=1.08x    frame=  935 fps= 27 q=-1.0 size=   31744kB time=00:00:37.40 bitrate=6952.9kbits/s speed=1.08x    frame=  949 fps= 27 q=-1.0 size=   32000kB time=00:00:37.96 bitrate=6905.6kbits/s speed=1.08x    frame=  963 fps= 27 q=-1.0 size=   32512kB time=00:00:38.52 bitrate=6914.1kbits/s speed=1.08x    frame=  977 fps= 27 q=-1.0 size=   33024kB time=00:00:39.08 bitrate=6922.4kbits/s speed=1.08x    frame=  991 fps= 27 q=-1.0 size=   33536kB time=00:00:39.64 bitrate=6930.4kbits/s speed=1.08x    frame= 1005 fps= 27 q=-1.0 size=   34048kB time=00:00:40.20 bitrate=6938.2kbits/s speed=1.08x    frame= 1018 fps= 27 q=-1.0 size=   34560kB time=00:00:40.72 bitrate=6952.6kbits/s speed=1.07x    frame= 1032 fps= 27 q=-1.0 size=   34816kB time=00:00:41.28 bitrate=6909.1kbits/s speed=1.07x    frame= 1046 fps= 27 q=-1.0 size=   35328kB time=00:00:41.84 bitrate=6916.8kbits/s speed=1.07x    frame= 1060 fps= 27 q=-1.0 size=   35840kB time=00:00:42.40 bitrate=6924.4kbits/s speed=1.07x    frame= 1074 fps= 27 q=-1.0 size=   36352kB time=00:00:42.96 bitrate=6931.8kbits/s speed=1.07x    frame= 1088 fps= 27 q=-1.0 size=   36864kB time=00:00:43.52 bitrate=6938.9kbits/s speed=1.07x    frame= 1102 fps= 27 q=-1.0 size=   37376kB time=00:00:44.08 bitrate=6945.9kbits/s speed=1.07x    frame= 1116 fps= 27 q=-1.0 size=   37888kB time=00:00:44.64 bitrate=6952.8kbits/s speed=1.07x    Error writing trailer of ground_archive/ground_1777543336.mkv: Immediate exit requested
frame= 1125 fps= 27 q=-1.0 Lsize=   38144kB time=00:00:45.00 bitrate=6943.7kbits/s speed=1.07x    
video:38223kB audio:0kB subtitle:0kB other streams:0kB global headers:0kB muxing overhead: unknown
Error closing file ground_archive/ground_1777543336.mkv: Immediate exit requested
Exiting normally, received signal 2.
